<?xml version="1.0" encoding="UTF-8"?>
<svg xmlns="http://www.w3.org/2000/svg" xmlns:xlink="http://www.w3.org/1999/xlink" width="333.536798pt" height="333.536798pt" viewBox="0 0 333.536798 333.536798" version="1.1" id="Fig:pca"><defs><g><symbol overflow="visible" id="pca-glyph0-0"><path style="stroke:none;" d="M 0.964844 0 L 0.964844 -8.949219 L 4.339844 -8.949219 C 4.929688 -8.945313 5.382813 -8.917969 5.699219 -8.863281 C 6.136719 -8.789063 6.503906 -8.648438 6.804688 -8.445313 C 7.097656 -8.234375 7.335938 -7.945313 7.519531 -7.578125 C 7.699219 -7.203125 7.792969 -6.796875 7.792969 -6.359375 C 7.792969 -5.59375 7.550781 -4.949219 7.066406 -4.425781 C 6.582031 -3.894531 5.707031 -3.632813 4.445313 -3.636719 L 2.148438 -3.636719 L 2.148438 0 Z M 2.148438 -4.695313 L 4.460938 -4.695313 C 5.222656 -4.691406 5.765625 -4.835938 6.089844 -5.121094 C 6.410156 -5.402344 6.574219 -5.800781 6.574219 -6.324219 C 6.574219 -6.691406 6.476563 -7.011719 6.289063 -7.28125 C 6.097656 -7.546875 5.851563 -7.722656 5.542969 -7.8125 C 5.339844 -7.859375 4.96875 -7.886719 4.4375 -7.890625 L 2.148438 -7.890625 Z M 2.148438 -4.695313 "/></symbol><symbol overflow="visible" id="pca-glyph0-1"><path style="stroke:none;" d="M 7.347656 -3.136719 L 8.53125 -2.839844 C 8.28125 -1.863281 7.832031 -1.121094 7.191406 -0.613281 C 6.542969 -0.101563 5.757813 0.152344 4.828125 0.152344 C 3.863281 0.152344 3.078125 -0.0429688 2.476563 -0.433594 C 1.871094 -0.824219 1.410156 -1.390625 1.09375 -2.140625 C 0.777344 -2.882813 0.621094 -3.683594 0.621094 -4.539063 C 0.621094 -5.46875 0.796875 -6.28125 1.15625 -6.976563 C 1.507813 -7.667969 2.015625 -8.195313 2.675781 -8.558594 C 3.332031 -8.917969 4.054688 -9.097656 4.847656 -9.101563 C 5.738281 -9.097656 6.492188 -8.871094 7.101563 -8.417969 C 7.710938 -7.960938 8.136719 -7.320313 8.378906 -6.492188 L 7.214844 -6.21875 C 7.003906 -6.867188 6.703125 -7.34375 6.308594 -7.640625 C 5.914063 -7.9375 5.417969 -8.085938 4.820313 -8.085938 C 4.128906 -8.085938 3.554688 -7.917969 3.097656 -7.589844 C 2.632813 -7.257813 2.308594 -6.816406 2.125 -6.265625 C 1.933594 -5.707031 1.839844 -5.136719 1.84375 -4.546875 C 1.839844 -3.785156 1.949219 -3.121094 2.175781 -2.554688 C 2.394531 -1.984375 2.742188 -1.558594 3.210938 -1.28125 C 3.679688 -0.996094 4.183594 -0.855469 4.730469 -0.859375 C 5.390625 -0.855469 5.953125 -1.046875 6.414063 -1.433594 C 6.871094 -1.8125 7.183594 -2.378906 7.347656 -3.136719 Z M 7.347656 -3.136719 "/></symbol><symbol overflow="visible" id="pca-glyph0-2"><path style="stroke:none;" d="M 4.65625 0 L 3.558594 0 L 3.558594 -7 C 3.289063 -6.746094 2.941406 -6.492188 2.515625 -6.242188 C 2.085938 -5.988281 1.703125 -5.800781 1.359375 -5.675781 L 1.359375 -6.738281 C 1.972656 -7.027344 2.507813 -7.375 2.972656 -7.789063 C 3.429688 -8.195313 3.757813 -8.59375 3.949219 -8.984375 L 4.65625 -8.984375 Z M 4.65625 0 "/></symbol><symbol overflow="visible" id="pca-glyph1-0"><path style="stroke:none;" d="M 0 -0.964844 L -8.949219 -0.964844 L -8.949219 -4.339844 C -8.945313 -4.929688 -8.917969 -5.382813 -8.863281 -5.699219 C -8.789063 -6.136719 -8.648438 -6.503906 -8.445313 -6.804688 C -8.234375 -7.097656 -7.945313 -7.335938 -7.578125 -7.519531 C -7.203125 -7.699219 -6.796875 -7.792969 -6.359375 -7.792969 C -5.59375 -7.792969 -4.949219 -7.550781 -4.425781 -7.066406 C -3.894531 -6.582031 -3.632813 -5.707031 -3.636719 -4.445313 L -3.636719 -2.148438 L 0 -2.148438 Z M -4.695313 -2.148438 L -4.695313 -4.460938 C -4.691406 -5.222656 -4.835938 -5.765625 -5.121094 -6.089844 C -5.402344 -6.410156 -5.800781 -6.574219 -6.324219 -6.574219 C -6.691406 -6.574219 -7.011719 -6.476563 -7.28125 -6.289063 C -7.546875 -6.097656 -7.722656 -5.851563 -7.8125 -5.542969 C -7.859375 -5.339844 -7.886719 -4.96875 -7.890625 -4.4375 L -7.890625 -2.148438 Z M -4.695313 -2.148438 "/></symbol><symbol overflow="visible" id="pca-glyph1-1"><path style="stroke:none;" d="M -3.136719 -7.347656 L -2.839844 -8.53125 C -1.863281 -8.28125 -1.121094 -7.832031 -0.613281 -7.191406 C -0.101563 -6.542969 0.152344 -5.757813 0.152344 -4.828125 C 0.152344 -3.863281 -0.0429688 -3.078125 -0.433594 -2.476563 C -0.824219 -1.871094 -1.390625 -1.410156 -2.140625 -1.09375 C -2.882813 -0.777344 -3.683594 -0.621094 -4.539063 -0.621094 C -5.46875 -0.621094 -6.28125 -0.796875 -6.976563 -1.15625 C -7.667969 -1.507813 -8.195313 -2.015625 -8.558594 -2.675781 C -8.917969 -3.332031 -9.097656 -4.054688 -9.101563 -4.847656 C -9.097656 -5.738281 -8.871094 -6.492188 -8.417969 -7.101563 C -7.960938 -7.710938 -7.320313 -8.136719 -6.492188 -8.378906 L -6.21875 -7.214844 C -6.867188 -7.003906 -7.34375 -6.703125 -7.640625 -6.308594 C -7.9375 -5.914063 -8.085938 -5.417969 -8.085938 -4.820313 C -8.085938 -4.128906 -7.917969 -3.554688 -7.589844 -3.097656 C -7.257813 -2.632813 -6.816406 -2.308594 -6.265625 -2.125 C -5.707031 -1.933594 -5.136719 -1.839844 -4.546875 -1.84375 C -3.785156 -1.839844 -3.121094 -1.949219 -2.554688 -2.175781 C -1.984375 -2.394531 -1.558594 -2.742188 -1.28125 -3.210938 C -0.996094 -3.679688 -0.855469 -4.183594 -0.859375 -4.730469 C -0.855469 -5.390625 -1.046875 -5.953125 -1.433594 -6.414063 C -1.8125 -6.871094 -2.378906 -7.183594 -3.136719 -7.347656 Z M -3.136719 -7.347656 "/></symbol><symbol overflow="visible" id="pca-glyph1-2"><path style="stroke:none;" d="M -1.054688 -6.292969 L 0 -6.292969 L 0 -0.378906 C -0.265625 -0.367188 -0.519531 -0.410156 -0.761719 -0.507813 C -1.164063 -0.65625 -1.558594 -0.898438 -1.953125 -1.230469 C -2.339844 -1.558594 -2.792969 -2.035156 -3.308594 -2.667969 C -4.101563 -3.636719 -4.734375 -4.292969 -5.203125 -4.636719 C -5.667969 -4.976563 -6.105469 -5.148438 -6.523438 -5.152344 C -6.957031 -5.148438 -7.324219 -4.992188 -7.625 -4.683594 C -7.921875 -4.371094 -8.074219 -3.96875 -8.074219 -3.46875 C -8.074219 -2.9375 -7.914063 -2.511719 -7.597656 -2.195313 C -7.277344 -1.878906 -6.839844 -1.71875 -6.28125 -1.714844 L -6.398438 -0.585938 C -7.238281 -0.664063 -7.878906 -0.953125 -8.320313 -1.457031 C -8.761719 -1.960938 -8.980469 -2.640625 -8.984375 -3.492188 C -8.980469 -4.347656 -8.742188 -5.023438 -8.269531 -5.527344 C -7.789063 -6.027344 -7.199219 -6.28125 -6.5 -6.28125 C -6.140625 -6.28125 -5.789063 -6.207031 -5.445313 -6.058594 C -5.09375 -5.910156 -4.730469 -5.664063 -4.351563 -5.328125 C -3.964844 -4.984375 -3.441406 -4.421875 -2.777344 -3.636719 C -2.222656 -2.976563 -1.84375 -2.554688 -1.648438 -2.367188 C -1.449219 -2.179688 -1.253906 -2.023438 -1.054688 -1.90625 Z M -1.054688 -6.292969 "/></symbol><symbol overflow="visible" id="pca-glyph2-0"><path style="stroke:none;" d="M 0.320313 -2.171875 L 0.320313 -3.0625 L 3.046875 -3.0625 L 3.046875 -2.171875 Z M 0.320313 -2.171875 "/></symbol><symbol overflow="visible" id="pca-glyph2-1"><path style="stroke:none;" d="M 5.085938 -0.851563 L 5.085938 0 L 0.304688 0 C 0.296875 -0.210938 0.332031 -0.414063 0.410156 -0.617188 C 0.53125 -0.9375 0.722656 -1.257813 0.992188 -1.578125 C 1.257813 -1.890625 1.648438 -2.257813 2.15625 -2.671875 C 2.9375 -3.316406 3.464844 -3.824219 3.746094 -4.203125 C 4.019531 -4.578125 4.160156 -4.9375 4.164063 -5.273438 C 4.160156 -5.625 4.035156 -5.917969 3.785156 -6.160156 C 3.53125 -6.398438 3.203125 -6.519531 2.800781 -6.523438 C 2.371094 -6.519531 2.027344 -6.390625 1.773438 -6.136719 C 1.515625 -5.878906 1.386719 -5.527344 1.386719 -5.074219 L 0.472656 -5.167969 C 0.53125 -5.847656 0.765625 -6.363281 1.175781 -6.722656 C 1.582031 -7.074219 2.128906 -7.253906 2.820313 -7.257813 C 3.511719 -7.253906 4.0625 -7.0625 4.46875 -6.679688 C 4.871094 -6.296875 5.074219 -5.820313 5.074219 -5.253906 C 5.074219 -4.960938 5.011719 -4.675781 4.894531 -4.398438 C 4.773438 -4.117188 4.578125 -3.824219 4.304688 -3.515625 C 4.027344 -3.203125 3.570313 -2.777344 2.9375 -2.242188 C 2.402344 -1.792969 2.0625 -1.488281 1.914063 -1.332031 C 1.761719 -1.167969 1.636719 -1.007813 1.539063 -0.851563 Z M 5.085938 -0.851563 "/></symbol><symbol overflow="visible" id="pca-glyph2-2"><path style="stroke:none;" d="M 0.417969 -3.566406 C 0.414063 -4.417969 0.503906 -5.105469 0.679688 -5.628906 C 0.855469 -6.148438 1.117188 -6.550781 1.464844 -6.832031 C 1.8125 -7.113281 2.25 -7.253906 2.777344 -7.257813 C 3.164063 -7.253906 3.503906 -7.175781 3.796875 -7.023438 C 4.085938 -6.863281 4.324219 -6.636719 4.519531 -6.347656 C 4.707031 -6.050781 4.859375 -5.695313 4.96875 -5.273438 C 5.078125 -4.851563 5.132813 -4.28125 5.132813 -3.566406 C 5.132813 -2.714844 5.042969 -2.03125 4.871094 -1.511719 C 4.691406 -0.988281 4.433594 -0.582031 4.089844 -0.300781 C 3.742188 -0.015625 3.304688 0.121094 2.777344 0.125 C 2.078125 0.121094 1.527344 -0.125 1.132813 -0.625 C 0.652344 -1.222656 0.414063 -2.203125 0.417969 -3.566406 Z M 1.332031 -3.566406 C 1.328125 -2.375 1.46875 -1.585938 1.746094 -1.195313 C 2.023438 -0.800781 2.367188 -0.601563 2.777344 -0.605469 C 3.183594 -0.601563 3.523438 -0.800781 3.804688 -1.195313 C 4.078125 -1.589844 4.21875 -2.378906 4.222656 -3.566406 C 4.21875 -4.753906 4.078125 -5.542969 3.804688 -5.9375 C 3.523438 -6.324219 3.179688 -6.519531 2.765625 -6.523438 C 2.359375 -6.519531 2.03125 -6.347656 1.789063 -6.007813 C 1.480469 -5.5625 1.328125 -4.75 1.332031 -3.566406 Z M 1.332031 -3.566406 "/></symbol><symbol overflow="visible" id="pca-glyph2-3"><path style="stroke:none;" d="M 3.265625 0 L 3.265625 -1.730469 L 0.128906 -1.730469 L 0.128906 -2.542969 L 3.425781 -7.230469 L 4.152344 -7.230469 L 4.152344 -2.542969 L 5.128906 -2.542969 L 5.128906 -1.730469 L 4.152344 -1.730469 L 4.152344 0 Z M 3.265625 -2.542969 L 3.265625 -5.804688 L 1 -2.542969 Z M 3.265625 -2.542969 "/></symbol><symbol overflow="visible" id="pca-glyph2-4"><path style="stroke:none;" d="M 3.761719 0 L 2.875 0 L 2.875 -5.65625 C 2.660156 -5.449219 2.378906 -5.246094 2.035156 -5.042969 C 1.683594 -4.835938 1.375 -4.683594 1.101563 -4.585938 L 1.101563 -5.445313 C 1.59375 -5.671875 2.027344 -5.953125 2.402344 -6.289063 C 2.773438 -6.617188 3.035156 -6.941406 3.191406 -7.257813 L 3.761719 -7.257813 Z M 3.761719 0 "/></symbol><symbol overflow="visible" id="pca-glyph2-5"><path style="stroke:none;" d="M 0.417969 -1.894531 L 1.351563 -1.972656 C 1.417969 -1.515625 1.578125 -1.175781 1.832031 -0.949219 C 2.082031 -0.71875 2.386719 -0.601563 2.742188 -0.605469 C 3.167969 -0.601563 3.527344 -0.765625 3.824219 -1.089844 C 4.117188 -1.410156 4.265625 -1.835938 4.269531 -2.371094 C 4.265625 -2.875 4.125 -3.273438 3.84375 -3.570313 C 3.558594 -3.859375 3.183594 -4.007813 2.726563 -4.007813 C 2.4375 -4.007813 2.179688 -3.941406 1.953125 -3.8125 C 1.71875 -3.683594 1.539063 -3.515625 1.410156 -3.308594 L 0.578125 -3.417969 L 1.277344 -7.132813 L 4.871094 -7.132813 L 4.871094 -6.28125 L 1.988281 -6.28125 L 1.597656 -4.339844 C 2.03125 -4.640625 2.488281 -4.792969 2.964844 -4.792969 C 3.59375 -4.792969 4.125 -4.574219 4.558594 -4.136719 C 4.992188 -3.699219 5.207031 -3.136719 5.210938 -2.449219 C 5.207031 -1.792969 5.019531 -1.226563 4.640625 -0.753906 C 4.175781 -0.167969 3.542969 0.121094 2.742188 0.125 C 2.082031 0.121094 1.542969 -0.0585938 1.128906 -0.425781 C 0.710938 -0.792969 0.472656 -1.28125 0.417969 -1.894531 Z M 0.417969 -1.894531 "/></symbol></g><clipPath id="pca-clip1"><path d="M 52.554688 119.066406 L 305.53125 119.066406 L 305.53125 199.289063 L 52.554688 199.289063 Z M 52.554688 119.066406 "/></clipPath></defs><g id="surface31"><g style="fill:rgb(0%,0%,0%);fill-opacity:1;"><use xlink:href="#pca-glyph0-0" x="166.386719" y="237.476563"/><use xlink:href="#pca-glyph0-1" x="174.724121" y="237.476563"/><use xlink:href="#pca-glyph0-2" x="183.751221" y="237.476563"/></g><g style="fill:rgb(0%,0%,0%);fill-opacity:1;"><use xlink:href="#pca-glyph1-0" x="14.949219" y="170.835938"/><use xlink:href="#pca-glyph1-1" x="14.949219" y="162.498535"/><use xlink:href="#pca-glyph1-2" x="14.949219" y="153.471436"/></g><path style="fill:none;stroke-width:1;stroke-linecap:round;stroke-linejoin:round;stroke:rgb(0%,0%,0%);stroke-opacity:1;stroke-miterlimit:10;" d="M 84.191406 119.066406 L 84.191406 113.398438 "/><path style="fill:none;stroke-width:1;stroke-linecap:round;stroke-linejoin:round;stroke:rgb(0%,0%,0%);stroke-opacity:1;stroke-miterlimit:10;" d="M 131.285156 119.066406 L 131.285156 113.398438 "/><path style="fill:none;stroke-width:1;stroke-linecap:round;stroke-linejoin:round;stroke:rgb(0%,0%,0%);stroke-opacity:1;stroke-miterlimit:10;" d="M 178.382813 119.066406 L 178.382813 113.398438 "/><path style="fill:none;stroke-width:1;stroke-linecap:round;stroke-linejoin:round;stroke:rgb(0%,0%,0%);stroke-opacity:1;stroke-miterlimit:10;" d="M 225.476563 119.066406 L 225.476563 113.398438 "/><path style="fill:none;stroke-width:1;stroke-linecap:round;stroke-linejoin:round;stroke:rgb(0%,0%,0%);stroke-opacity:1;stroke-miterlimit:10;" d="M 272.570313 119.066406 L 272.570313 113.398438 "/><path style="fill:none;stroke-width:1;stroke-linecap:round;stroke-linejoin:round;stroke:rgb(0%,0%,0%);stroke-opacity:1;stroke-miterlimit:10;" d="M 52.554688 181.136719 L 46.882813 181.136719 "/><path style="fill:none;stroke-width:1;stroke-linecap:round;stroke-linejoin:round;stroke:rgb(0%,0%,0%);stroke-opacity:1;stroke-miterlimit:10;" d="M 52.554688 162.300781 L 46.882813 162.300781 "/><path style="fill:none;stroke-width:1;stroke-linecap:round;stroke-linejoin:round;stroke:rgb(0%,0%,0%);stroke-opacity:1;stroke-miterlimit:10;" d="M 52.554688 143.460938 L 46.882813 143.460938 "/><path style="fill:none;stroke-width:1;stroke-linecap:round;stroke-linejoin:round;stroke:rgb(0%,0%,0%);stroke-opacity:1;stroke-miterlimit:10;" d="M 52.554688 124.625 L 46.882813 124.625 "/><g style="fill:rgb(0%,0%,0%);fill-opacity:1;"><use xlink:href="#pca-glyph2-0" x="26.617188" y="184.753906"/><use xlink:href="#pca-glyph2-1" x="29.980566" y="184.753906"/><use xlink:href="#pca-glyph2-2" x="35.597705" y="184.753906"/></g><g style="fill:rgb(0%,0%,0%);fill-opacity:1;"><use xlink:href="#pca-glyph2-2" x="35.597656" y="165.914063"/></g><g style="fill:rgb(0%,0%,0%);fill-opacity:1;"><use xlink:href="#pca-glyph2-1" x="29.980469" y="147.078125"/><use xlink:href="#pca-glyph2-2" x="35.597607" y="147.078125"/></g><g style="fill:rgb(0%,0%,0%);fill-opacity:1;"><use xlink:href="#pca-glyph2-3" x="29.980469" y="128.238281"/><use xlink:href="#pca-glyph2-2" x="35.597607" y="128.238281"/></g><path style="fill:none;stroke-width:1;stroke-linecap:round;stroke-linejoin:round;stroke:rgb(0%,0%,0%);stroke-opacity:1;stroke-miterlimit:10;" d="M 84.191406 198.292969 L 84.191406 203.960938 "/><path style="fill:none;stroke-width:1;stroke-linecap:round;stroke-linejoin:round;stroke:rgb(0%,0%,0%);stroke-opacity:1;stroke-miterlimit:10;" d="M 131.285156 198.292969 L 131.285156 203.960938 "/><path style="fill:none;stroke-width:1;stroke-linecap:round;stroke-linejoin:round;stroke:rgb(0%,0%,0%);stroke-opacity:1;stroke-miterlimit:10;" d="M 178.382813 198.292969 L 178.382813 203.960938 "/><path style="fill:none;stroke-width:1;stroke-linecap:round;stroke-linejoin:round;stroke:rgb(0%,0%,0%);stroke-opacity:1;stroke-miterlimit:10;" d="M 225.476563 198.292969 L 225.476563 203.960938 "/><path style="fill:none;stroke-width:1;stroke-linecap:round;stroke-linejoin:round;stroke:rgb(0%,0%,0%);stroke-opacity:1;stroke-miterlimit:10;" d="M 272.570313 198.292969 L 272.570313 203.960938 "/><g style="fill:rgb(0%,0%,0%);fill-opacity:1;"><use xlink:href="#pca-glyph2-0" x="74.085938" y="216.859375"/><use xlink:href="#pca-glyph2-4" x="77.449316" y="216.859375"/><use xlink:href="#pca-glyph2-2" x="83.066455" y="216.859375"/><use xlink:href="#pca-glyph2-2" x="88.683594" y="216.859375"/></g><g style="fill:rgb(0%,0%,0%);fill-opacity:1;"><use xlink:href="#pca-glyph2-0" x="123.984375" y="216.859375"/><use xlink:href="#pca-glyph2-5" x="127.347754" y="216.859375"/><use xlink:href="#pca-glyph2-2" x="132.964893" y="216.859375"/></g><g style="fill:rgb(0%,0%,0%);fill-opacity:1;"><use xlink:href="#pca-glyph2-2" x="175.574219" y="216.859375"/></g><g style="fill:rgb(0%,0%,0%);fill-opacity:1;"><use xlink:href="#pca-glyph2-5" x="219.859375" y="216.859375"/><use xlink:href="#pca-glyph2-2" x="225.476514" y="216.859375"/></g><g style="fill:rgb(0%,0%,0%);fill-opacity:1;"><use xlink:href="#pca-glyph2-4" x="264.144531" y="216.859375"/><use xlink:href="#pca-glyph2-2" x="269.76167" y="216.859375"/><use xlink:href="#pca-glyph2-2" x="275.378809" y="216.859375"/></g><path style="fill:none;stroke-width:1;stroke-linecap:round;stroke-linejoin:round;stroke:rgb(0%,0%,0%);stroke-opacity:1;stroke-miterlimit:10;" d="M 304.527344 181.136719 L 310.199219 181.136719 "/><path style="fill:none;stroke-width:1;stroke-linecap:round;stroke-linejoin:round;stroke:rgb(0%,0%,0%);stroke-opacity:1;stroke-miterlimit:10;" d="M 304.527344 162.300781 L 310.199219 162.300781 "/><path style="fill:none;stroke-width:1;stroke-linecap:round;stroke-linejoin:round;stroke:rgb(0%,0%,0%);stroke-opacity:1;stroke-miterlimit:10;" d="M 304.527344 143.460938 L 310.199219 143.460938 "/><path style="fill:none;stroke-width:1;stroke-linecap:round;stroke-linejoin:round;stroke:rgb(0%,0%,0%);stroke-opacity:1;stroke-miterlimit:10;" d="M 304.527344 124.625 L 310.199219 124.625 "/><g clip-path="url(#pca-clip1)" clip-rule="nonzero" type="plot-region" class="plot-region"><path d="M 74.246094 123.933594 C 74.246094 128.597656 67.246094 128.597656 67.246094 123.933594 C 67.246094 119.265625 74.246094 119.265625 74.246094 123.933594 " type="plot-point" class="aqm1" onclick="plotObjRespond('click', 1, 'pca')" onmouseover="plotObjRespond('show', 1, 'pca')" onmouseout="plotObjRespond('hide', 1, 'pca')" fill-rule="nonzero" fill="rgb(12.156863%,47.058824%,70.588235%)" fill-opacity="1" stroke-width="1" stroke-linecap="round" stroke-linejoin="round" stroke="rgb(12.156863%,47.058824%,70.588235%)" stroke-opacity="1" stroke-miterlimit="10"/><path d="M 71.527344 176.867188 C 71.527344 181.535156 64.527344 181.535156 64.527344 176.867188 C 64.527344 172.203125 71.527344 172.203125 71.527344 176.867188 " type="plot-point" class="aqm2" onclick="plotObjRespond('click', 2, 'pca')" onmouseover="plotObjRespond('show', 2, 'pca')" onmouseout="plotObjRespond('hide', 2, 'pca')" fill-rule="nonzero" fill="rgb(12.156863%,47.058824%,70.588235%)" fill-opacity="1" stroke-width="1" stroke-linecap="round" stroke-linejoin="round" stroke="rgb(12.156863%,47.058824%,70.588235%)" stroke-opacity="1" stroke-miterlimit="10"/><path d="M 71.992188 163.207031 C 71.992188 167.875 64.992188 167.875 64.992188 163.207031 C 64.992188 158.542969 71.992188 158.542969 71.992188 163.207031 " type="plot-point" class="aqm3" onclick="plotObjRespond('click', 3, 'pca')" onmouseover="plotObjRespond('show', 3, 'pca')" onmouseout="plotObjRespond('hide', 3, 'pca')" fill-rule="nonzero" fill="rgb(12.156863%,47.058824%,70.588235%)" fill-opacity="1" stroke-width="1" stroke-linecap="round" stroke-linejoin="round" stroke="rgb(12.156863%,47.058824%,70.588235%)" stroke-opacity="1" stroke-miterlimit="10"/><path d="M 71.53125 175.402344 C 71.53125 180.070313 64.53125 180.070313 64.53125 175.402344 C 64.53125 170.738281 71.53125 170.738281 71.53125 175.402344 " type="plot-point" class="aqm4" onclick="plotObjRespond('click', 4, 'pca')" onmouseover="plotObjRespond('show', 4, 'pca')" onmouseout="plotObjRespond('hide', 4, 'pca')" fill-rule="nonzero" fill="rgb(12.156863%,47.058824%,70.588235%)" fill-opacity="1" stroke-width="1" stroke-linecap="round" stroke-linejoin="round" stroke="rgb(12.156863%,47.058824%,70.588235%)" stroke-opacity="1" stroke-miterlimit="10"/><path d="M 71.699219 171.429688 C 71.699219 176.09375 64.699219 176.09375 64.699219 171.429688 C 64.699219 166.761719 71.699219 166.761719 71.699219 171.429688 " type="plot-point" class="aqm5" onclick="plotObjRespond('click', 5, 'pca')" onmouseover="plotObjRespond('show', 5, 'pca')" onmouseout="plotObjRespond('hide', 5, 'pca')" fill-rule="nonzero" fill="rgb(12.156863%,47.058824%,70.588235%)" fill-opacity="1" stroke-width="1" stroke-linecap="round" stroke-linejoin="round" stroke="rgb(12.156863%,47.058824%,70.588235%)" stroke-opacity="1" stroke-miterlimit="10"/><path d="M 290.613281 193.425781 C 290.613281 198.09375 283.613281 198.09375 283.613281 193.425781 C 283.613281 188.761719 290.613281 188.761719 290.613281 193.425781 " type="plot-point" class="aqm6" onclick="plotObjRespond('click', 6, 'pca')" onmouseover="plotObjRespond('show', 6, 'pca')" onmouseout="plotObjRespond('hide', 6, 'pca')" fill-rule="nonzero" fill="rgb(12.156863%,47.058824%,70.588235%)" fill-opacity="1" stroke-width="1" stroke-linecap="round" stroke-linejoin="round" stroke="rgb(12.156863%,47.058824%,70.588235%)" stroke-opacity="1" stroke-miterlimit="10"/><path d="M 292.558594 150.074219 C 292.558594 154.738281 285.558594 154.738281 285.558594 150.074219 C 285.558594 145.40625 292.558594 145.40625 292.558594 150.074219 " type="plot-point" class="aqm7" onclick="plotObjRespond('click', 7, 'pca')" onmouseover="plotObjRespond('show', 7, 'pca')" onmouseout="plotObjRespond('hide', 7, 'pca')" fill-rule="nonzero" fill="rgb(12.156863%,47.058824%,70.588235%)" fill-opacity="1" stroke-width="1" stroke-linecap="round" stroke-linejoin="round" stroke="rgb(12.156863%,47.058824%,70.588235%)" stroke-opacity="1" stroke-miterlimit="10"/><path d="M 291.976563 152.835938 C 291.976563 157.5 284.976563 157.5 284.976563 152.835938 C 284.976563 148.167969 291.976563 148.167969 291.976563 152.835938 " type="plot-point" class="aqm8" onclick="plotObjRespond('click', 8, 'pca')" onmouseover="plotObjRespond('show', 8, 'pca')" onmouseout="plotObjRespond('hide', 8, 'pca')" fill-rule="nonzero" fill="rgb(12.156863%,47.058824%,70.588235%)" fill-opacity="1" stroke-width="1" stroke-linecap="round" stroke-linejoin="round" stroke="rgb(12.156863%,47.058824%,70.588235%)" stroke-opacity="1" stroke-miterlimit="10"/><path d="M 291.617188 158.957031 C 291.617188 163.625 284.617188 163.625 284.617188 158.957031 C 284.617188 154.289063 291.617188 154.289063 291.617188 158.957031 " type="plot-point" class="aqm9" onclick="plotObjRespond('click', 9, 'pca')" onmouseover="plotObjRespond('show', 9, 'pca')" onmouseout="plotObjRespond('hide', 9, 'pca')" fill-rule="nonzero" fill="rgb(12.156863%,47.058824%,70.588235%)" fill-opacity="1" stroke-width="1" stroke-linecap="round" stroke-linejoin="round" stroke="rgb(12.156863%,47.058824%,70.588235%)" stroke-opacity="1" stroke-miterlimit="10"/><path d="M 291.054688 156.871094 C 291.054688 161.539063 284.054688 161.539063 284.054688 156.871094 C 284.054688 152.207031 291.054688 152.207031 291.054688 156.871094 " type="plot-point" class="aqm10" onclick="plotObjRespond('click', 10, 'pca')" onmouseover="plotObjRespond('show', 10, 'pca')" onmouseout="plotObjRespond('hide', 10, 'pca')" fill-rule="nonzero" fill="rgb(12.156863%,47.058824%,70.588235%)" fill-opacity="1" stroke-width="1" stroke-linecap="round" stroke-linejoin="round" stroke="rgb(12.156863%,47.058824%,70.588235%)" stroke-opacity="1" stroke-miterlimit="10"/></g><path style="fill:none;stroke-width:1;stroke-linecap:round;stroke-linejoin:round;stroke:rgb(0%,0%,0%);stroke-opacity:1;stroke-miterlimit:10;" d="M 52.554688 119.066406 L 304.53125 119.066406 L 304.53125 198.289063 L 52.554688 198.289063 Z M 52.554688 119.066406 "/></g></svg>
